# xmcd
#
# Track frame offsets:
# 150
# 8488
# 27686
#
# Disc length: 569 seconds
#
# Revision: 0
# Processed by: cddbd v1.5.1PL2 Copyright (c) Steve Scherf et al.
# Submitted via: Audion 3.0.2 (http://www.panic.com/audion/)
#
DISCID=19023703
DTITLE=Groupe Terre Neuve - Groupe Terre Neuve
DYEAR=1900
DGENRE=
TTITLE0=1
TTITLE1=2
TTITLE2=3
EXTD=
EXTT0=
EXTT1=
EXTT2=
PLAYORDER=
